<svg width="24" height="25" viewBox="0 0 24 25" fill="none" xmlns="http://www.w3.org/2000/svg">
<g clip-path="url(#clip0_201_2654)">
<path d="M22.125 0.5H1.875C0.839062 0.5 0 1.33906 0 2.375V22.625C0 23.6609 0.839062 24.5 1.875 24.5H22.125C23.1609 24.5 24 23.6609 24 22.625V2.375C24 1.33906 23.1609 0.5 22.125 0.5ZM14.6484 10.4656L14.5125 12.2609H12.6703V18.4953H10.3453V12.2609H9.10312V10.4656H10.3453V9.26094C10.3453 8.73125 10.3594 7.91094 10.7437 7.4C11.1516 6.86094 11.7094 6.49531 12.6703 6.49531C14.2359 6.49531 14.8922 6.72031 14.8922 6.72031L14.5828 8.55781C14.5828 8.55781 14.0672 8.40781 13.5844 8.40781C13.1016 8.40781 12.6703 8.58125 12.6703 9.06406V10.4656H14.6484Z" fill="white"/>
</g>
<defs>
<clipPath id="clip0_201_2654">
<rect width="24" height="24" fill="white" transform="translate(0 0.5)"/>
</clipPath>
</defs>
</svg>
