<svg width="24" height="25" viewBox="0 0 24 25" fill="none" xmlns="http://www.w3.org/2000/svg">
<g clip-path="url(#clip0_201_2660)">
<path d="M20.4 0.5H3.6C1.61177 0.5 0 2.11177 0 4.1V20.9C0 22.8882 1.61177 24.5 3.6 24.5H20.4C22.3882 24.5 24 22.8882 24 20.9V4.1C24 2.11177 22.3882 0.5 20.4 0.5Z" fill="white"/>
<path d="M15.7031 23.8907C16.3594 23.8907 16.2656 24.6876 16.2656 24.6876H7.73438C7.73438 24.6876 7.64063 23.8907 8.29688 23.8907C8.90625 23.8907 9.04688 23.6094 9.04688 23.3282L9 20.9844C5.67188 21.7344 4.96875 19.6719 4.96875 19.6719C4.40625 18.2657 3.65625 17.9376 3.65625 17.9376C2.53125 17.1876 3.70313 17.1876 3.70313 17.1876C4.92188 17.2813 5.57813 18.4063 5.57813 18.4063C6.60938 20.2344 8.34375 19.7188 9.04688 19.4376C9.14063 18.6407 9.46875 18.1251 9.79688 17.7969C7.125 17.5157 4.35938 16.4844 4.35938 11.8907C4.35938 10.5782 4.82813 9.50006 5.57813 8.65631C5.4375 8.37506 5.0625 7.15631 5.71875 5.51569C5.71875 5.51569 6.70313 5.18756 9 6.73444C10.9688 6.17194 13.0313 6.17194 15 6.73444C17.2969 5.18756 18.2813 5.51569 18.2813 5.51569C18.9375 7.15631 18.5625 8.37506 18.4219 8.65631C19.1719 9.50006 19.6406 10.5782 19.6406 11.8907C19.6406 16.4844 16.8281 17.5157 14.1563 17.7969C14.625 18.1719 15 18.9219 15 20.0469L14.9531 23.3282C14.9531 23.6094 15.0938 23.8907 15.7031 23.8907Z" fill="#181818"/>
</g>
<defs>
<clipPath id="clip0_201_2660">
<rect width="24" height="24" fill="white" transform="translate(0 0.5)"/>
</clipPath>
</defs>
</svg>
