<svg width="24" height="25" viewBox="0 0 24 25" fill="none" xmlns="http://www.w3.org/2000/svg">
<path d="M23.9894 2.99922C23.8423 1.57015 22.6579 0.500286 21.2187 0.499512C15.0751 0.499512 8.93229 0.499512 2.78869 0.50106C2.6207 0.50106 2.44961 0.513446 2.28704 0.545186C0.926097 0.805298 0.00177002 1.9309 0.00177002 3.31585C0.00177002 6.37836 0.00177002 9.44087 0.00177002 12.5034C0.00177002 15.5597 0.00177002 18.616 0.00331831 21.6723C0.00331831 21.8279 0.0149305 21.9843 0.0342841 22.1399C0.212337 23.4691 1.39291 24.4995 2.73605 24.5003C8.91294 24.5003 15.0906 24.5003 21.2675 24.4995C21.3736 24.4995 21.4781 24.4933 21.5841 24.4817C22.9412 24.3222 23.9964 23.137 23.9964 21.7707C23.9987 15.5922 23.9987 9.41455 23.9971 3.23688C23.9987 3.15637 24.0002 3.07818 23.9894 2.99922ZM12.0002 7.88639C14.5503 7.88562 16.6141 9.94639 16.6172 12.4987C16.6203 15.0495 14.5595 17.1142 12.008 17.1157C9.45174 17.1165 7.38478 15.0503 7.38787 12.4956C7.39097 9.95181 9.45639 7.88639 12.0002 7.88639ZM21.2365 10.7809C21.2365 14.095 21.2365 17.4099 21.2365 20.7263C21.2365 21.3503 20.8572 21.7335 20.2325 21.7335C15.1053 21.7335 9.97816 21.7335 4.85023 21.7335C4.48097 21.7335 4.11402 21.7343 3.74398 21.7335C3.1657 21.7327 2.7732 21.3395 2.7732 20.7619C2.77243 17.4316 2.7732 14.1012 2.7732 10.7701C2.7732 10.7368 2.7732 10.7027 2.7732 10.6632C3.47071 10.6632 4.1597 10.6632 4.85565 10.6632C4.38962 12.5436 4.60328 14.3427 5.52374 16.0443C6.19647 17.286 7.16105 18.2514 8.39116 18.9458C10.8204 20.3168 13.8427 20.1875 16.1558 18.6067C17.4394 17.7289 18.3621 16.5614 18.9125 15.1068C19.4599 13.6553 19.5311 12.1736 19.1487 10.6601C19.8462 10.6601 20.5336 10.6601 21.235 10.6601C21.2365 10.7012 21.2365 10.7407 21.2365 10.7809ZM21.2365 6.94116C21.235 7.48693 20.8332 7.88484 20.2851 7.88562C20.2781 7.88562 20.2704 7.88562 20.2665 7.88562C19.8222 7.88562 19.3747 7.88562 18.9273 7.88562C18.4721 7.88562 18.0153 7.88639 17.5586 7.88484C17.0329 7.88484 16.6242 7.49235 16.6211 6.96671C16.6149 6.04161 16.6149 5.1165 16.6211 4.19295C16.6242 3.66111 17.0314 3.27172 17.5663 3.27095C18.4767 3.27017 19.3848 3.27017 20.2936 3.27095C20.8324 3.27172 21.2358 3.67195 21.2373 4.21385C21.2381 5.12425 21.2381 6.03232 21.2365 6.94116Z" fill="white"/>
</svg>
