<svg width="24" height="25" viewBox="0 0 24 25" fill="none" xmlns="http://www.w3.org/2000/svg">
<g clip-path="url(#clip0_201_2656)">
<path d="M22.125 0.5H1.875C0.839062 0.5 0 1.33906 0 2.375V22.625C0 23.6609 0.839062 24.5 1.875 24.5H22.125C23.1609 24.5 24 23.6609 24 22.625V2.375C24 1.33906 23.1609 0.5 22.125 0.5ZM8.64375 17.5203H6.30469V10.0344H8.64375V17.5203ZM7.41094 9.09687H7.39219C6.54375 9.09687 5.99531 8.525 5.99531 7.79844C5.99531 7.05781 6.5625 6.5 7.425 6.5C8.2875 6.5 8.81719 7.05781 8.83594 7.79844C8.84062 8.52031 8.29219 9.09687 7.41094 9.09687ZM18 17.5203H15.3469V13.6484C15.3469 12.6359 14.9344 11.9422 14.0203 11.9422C13.3219 11.9422 12.9328 12.4109 12.7547 12.8609C12.6891 13.0203 12.6984 13.2453 12.6984 13.475V17.5203H10.0688C10.0688 17.5203 10.1016 10.6578 10.0688 10.0344H12.6984V11.2109C12.8531 10.6953 13.6922 9.96406 15.0328 9.96406C16.6969 9.96406 18 11.0422 18 13.3578V17.5203Z" fill="white"/>
</g>
<defs>
<clipPath id="clip0_201_2656">
<rect width="24" height="24" fill="white" transform="translate(0 0.5)"/>
</clipPath>
</defs>
</svg>
